<svg width="38" height="38" viewBox="0 0 38 38" fill="none" xmlns="http://www.w3.org/2000/svg">
<path d="M16.677 3.29757C17.8089 1.69081 20.1911 1.69081 21.323 3.29757C22.1136 4.41991 23.5936 4.81648 24.8395 4.23982C26.6231 3.41426 28.6861 4.60534 28.863 6.56278C28.9865 7.93007 30.0699 9.0135 31.4372 9.13704C33.3947 9.31389 34.5857 11.3769 33.7602 13.1605C33.1835 14.4064 33.5801 15.8864 34.7024 16.677C36.3092 17.8089 36.3092 20.1911 34.7024 21.323C33.5801 22.1136 33.1835 23.5936 33.7602 24.8395C34.5857 26.6231 33.3947 28.6861 31.4372 28.863C30.0699 28.9865 28.9865 30.0699 28.863 31.4372C28.6861 33.3947 26.6231 34.5857 24.8395 33.7602C23.5936 33.1835 22.1136 33.5801 21.323 34.7024C20.1911 36.3092 17.8089 36.3092 16.677 34.7024C15.8864 33.5801 14.4064 33.1835 13.1605 33.7602C11.3769 34.5857 9.31389 33.3947 9.13704 31.4372C9.0135 30.0699 7.93007 28.9865 6.56278 28.863C4.60534 28.6861 3.41426 26.6231 4.23982 24.8395C4.81648 23.5936 4.41991 22.1136 3.29757 21.323C1.69081 20.1911 1.69081 17.8089 3.29757 16.677C4.41991 15.8864 4.81648 14.4064 4.23982 13.1605C3.41426 11.3769 4.60534 9.31389 6.56278 9.13704C7.93007 9.0135 9.0135 7.93007 9.13704 6.56278C9.31389 4.60534 11.3769 3.41426 13.1605 4.23982C14.4064 4.81648 15.8864 4.41991 16.677 3.29757Z" fill="#2BE080"/>
</svg>
